:SAMPLES-PER-SECOND 30
:FRAME-RANGE 1-4244
:FULLY-SPECIFIED
:DEGREES
531
root  -35.3418 33.2263 -46.7834 -1.32384 56.7586 3.2914
RightUpLeg  -36.3123 -4.4303 -17.638
RightLeg  55.3692 4.21198 6.12248
RightFoot  -15.4041 0.522468 17.5688
RightToes  -3.31784e-009 0 -3.6325e-017
Spine  22.2805 -1.89879 3.56736
Spine1  -7.36924 -2.47824 10.5262
HEad  -34.91 0.77119 -4.28426
LeftShoulder1  1.63593 -5.02352 -12.0811
LeftArm  -5.48679 -57.2483 -55.453
LeftForeArm  46.8165 -48.4993 -9.23301
LeftHand  -0.632789 0.114356 13.9857
RightShoulder  12.446 34.4618 26.1694
RightArm  -40.1639 32.72 3.58502
RightForeArm  43.7931 71.3848 29.6423
RightHand  -0.622474 2.9376 -8.89305
LeftUpLeg  -25.1308 19.6622 13.0252
LeftLeg  64.5022 -1.49796 -2.76553
LeftFoot  -27.2612 -2.05889 -15.8067
LeftToes  1.0277e-010 -6.71454e-011 3.04227e-011
532
root  -34.8231 33.0154 -47.1899 -3.40878 55.8962 2.34047
RightUpLeg  -35.1494 -3.12729 -18.374
RightLeg  55.7016 4.35621 6.42547
RightFoot  -15.5837 0.595117 18.7865
RightToes  -3.31784e-009 0 -3.6325e-017
Spine  22.2757 -1.99363 4.22558
Spine1  -8.89728 -2.23681 10.4265
HEad  -39.6399 2.40901 -4.02501
LeftShoulder1  1.73855 -5.18975 -12.9803
LeftArm  -1.87543 -56.7179 -56.3025
LeftForeArm  49.7691 -52.277 -10.5771
LeftHand  -0.682511 0.0800286 14.9799
RightShoulder  12.2024 31.8814 28.0233
RightArm  -39.1204 33.4945 6.41512
RightForeArm  43.2875 72.1551 31.6015
RightHand  -0.686428 2.31235 -10.5278
LeftUpLeg  -24.5586 19.1164 14.0017
LeftLeg  68.2189 -2.08205 -4.98143
LeftFoot  -26.8884 -2.25829 -17.6013
LeftToes  1.0277e-010 -6.71454e-011 3.04227e-011
533
root  -34.1764 32.9025 -47.573 -6.47221 54.1165 1.38969
RightUpLeg  -32.7636 -2.41995 -18.8645
RightLeg  55.4743 5.42116 8.00602
RightFoot  -15.7375 0.634468 19.1662
RightToes  -3.31784e-009 0 -3.6325e-017
Spine  21.6231 -2.21724 4.90081
Spine1  -10.0093 -2.06793 10.0128
HEad  -42.1324 5.27715 -7.26166
LeftShoulder1  1.89254 -4.79014 -16.0721
LeftArm  0.551749 -51.2876 -54.5562
LeftForeArm  54.0591 -56.9482 -12.5739
LeftHand  -0.753231 -0.00669009 16.2566
RightShoulder  13.0657 30.4675 32.104
RightArm  -34.4672 30.7517 9.04455
RightForeArm  43.7914 73.3977 35.0366
RightHand  -0.799421 1.6426 -13.3276
LeftUpLeg  -21.4289 18.6813 15.9733
LeftLeg  71.0231 -0.635227 -1.16882
LeftFoot  -24.2405 -1.84621 -17.4948
LeftToes  1.0277e-010 -6.71454e-011 3.04227e-011
534
root  -33.431 33.0912 -47.8762 -10.6716 52.1561 0.128067
RightUpLeg  -28.2632 -1.90973 -18.9414
RightLeg  53.5435 7.08122 9.79618
RightFoot  -15.4816 0.601169 19.3876
RightToes  -3.31784e-009 0 -3.6325e-017
Spine  19.897 -2.37507 5.67762
Spine1  -9.91726 -1.81205 8.45868
HEad  -43.3524 9.35537 -12.1103
LeftShoulder1  1.95318 -3.75727 -20.4755
LeftArm  2.97067 -43.0445 -51.3664
LeftForeArm  55.6437 -61.2577 -15.1867
LeftHand  -0.746593 0.0705053 16.3417
RightShoulder  13.9383 28.1103 37.727
RightArm  -27.3878 25.3749 10.8051
RightForeArm  42.6295 74.2149 38.2029
RightHand  -0.860424 1.32345 -14.977
LeftUpLeg  -15.5501 17.4814 18.9048
LeftLeg  72.1349 1.80615 7.27755
LeftFoot  -22.6355 -1.22913 -13.7442
LeftToes  1.0277e-010 -6.71454e-011 3.04227e-011
535
root  -32.6611 33.4881 -48.1664 -15.4707 52.125 -1.46249
RightUpLeg  -21.6328 -3.05793 -19.3453
RightLeg  50.1192 9.05361 11.09
RightFoot  -14.9145 0.52791 20.0051
RightToes  -3.31784e-009 0 -3.6325e-017
Spine  17.3178 -2.49078 4.77554
Spine1  -9.96444 -1.91649 7.98794
HEad  -42.2916 14.3933 -16.3664
LeftShoulder1  1.91073 -2.78359 -24.1681
LeftArm  5.44943 -34.4728 -48.7788
LeftForeArm  55.2433 -63.6861 -17.1803
LeftHand  -0.726429 -0.56372 14.2646
RightShoulder  12.6251 21.9902 43.0503
RightArm  -16.0963 20.1771 11.2988
RightForeArm  39.6737 73.7587 37.3229
RightHand  -0.918184 1.27578 -16.0722
LeftUpLeg  -8.9827 14.9339 21.1242
LeftLeg  69.5264 3.23971 10.4016
LeftFoot  -21.0819 -0.840936 -11.3196
LeftToes  1.0277e-010 -6.71454e-011 3.04227e-011
536
root  -31.9105 34.1044 -48.4357 -20.174 53.2776 -3.56345
RightUpLeg  -14.0115 -5.00701 -20.0008
RightLeg  44.811 11.2437 11.4391
RightFoot  -13.6489 0.332438 20.9277
RightToes  -3.31784e-009 0 -3.6325e-017
Spine  12.8877 -2.39004 3.35171
Spine1  -9.32536 -1.98988 6.45474
HEad  -38.721 19.2627 -19.8644
LeftShoulder1  1.8528 -2.155 -26.6151
LeftArm  7.50405 -28.9725 -47.4047
LeftForeArm  53.8596 -62.9812 -16.7144
LeftHand  -0.732895 -0.840993 13.7724
RightShoulder  9.92379 15.8687 44.7294
RightArm  -4.17294 13.7262 14.7465
RightForeArm  31.3175 70.6136 30.3945
RightHand  -0.920491 1.35442 -15.931
LeftUpLeg  -2.65402 13.4637 22.801
LeftLeg  61.8926 5.16586 10.9889
LeftFoot  -20.5635 -1.0047 -13.9229
LeftToes  1.0277e-010 -6.71454e-011 3.04227e-011
537
root  -31.3376 34.7344 -48.8768 -24.9695 55.2015 -6.32333
RightUpLeg  -6.5876 -7.21698 -20.8479
RightLeg  38.3228 13.0102 10.5635
RightFoot  -10.8196 -0.177715 22.4596
RightToes  -3.31784e-009 0 -3.6325e-017
Spine  8.39149 -2.13616 1.59677
Spine1  -8.0424 -1.86009 3.6273
HEad  -34.8111 24.349 -20.9665
LeftShoulder1  1.79015 -1.88685 -27.0947
LeftArm  10.6379 -28.4423 -49.6037
LeftForeArm  48.4057 -59.7062 -14.7634
LeftHand  -0.624516 -0.66101 12.0975
RightShoulder  8.11582 12.4141 44.5467
RightArm  6.94093 6.78794 18.5751
RightForeArm  21.1649 68.1372 27.3584
RightHand  -0.671601 1.05905 -12.2006
LeftUpLeg  1.56245 13.029 23.4469
LeftLeg  55.483 8.41687 13.3985
LeftFoot  -22.2877 -0.991348 -11.7051
LeftToes  1.0277e-010 -6.71454e-011 3.04227e-011
538
root  -31.0261 35.1958 -49.6684 -31.9157 57.9511 -10.7799
RightUpLeg  0.906621 -8.11795 -21.4229
RightLeg  31.7609 12.7289 8.14663
RightFoot  -6.34606 -1.14735 24.9282
RightToes  -3.31784e-009 0 -3.6325e-017
Spine  6.79102 -1.67131 0.478025
Spine1  -6.50634 -1.03569 0.334777
HEad  -33.7252 27.7512 -23.0408
LeftShoulder1  1.86388 -1.90108 -28.4081
LeftArm  17.8081 -32.806 -54.2966
LeftForeArm  41.8861 -56.3978 -13.2816
LeftHand  -0.545212 -0.467078 10.9124
RightShoulder  7.99427 11.9193 45.3237
RightArm  15.6044 1.46519 20.0092
RightForeArm  19.276 64.2865 22.1999
RightHand  -0.609123 2.37013 -9.30295
LeftUpLeg  3.60477 11.2454 23.5351
LeftLeg  54.2241 9.6599 14.5295
LeftFoot  -21.5282 -0.613629 -8.32005
LeftToes  1.0277e-010 -6.71454e-011 3.04227e-011
539
root  -30.9584 35.4436 -50.6767 -38.7683 59.4562 -16.4595
RightUpLeg  4.97048 -6.77318 -19.9522
RightLeg  26.9232 9.0805 4.75799
RightFoot  -0.646651 -2.58162 27.0556
RightToes  -3.31784e-009 0 -3.6325e-017
Spine  6.45245 -0.647577 1.46548
Spine1  -5.61513 0.82942 -4.67289
HEad  -33.0571 30.8003 -25.0259
LeftShoulder1  2.00507 -2.19633 -29.1174
LeftArm  27.1946 -36.705 -60.9656
LeftForeArm  40.7041 -54.5696 -12.3813
LeftHand  -0.580879 -1.17516 10.42
RightShoulder  9.19122 14.0002 45.9177
RightArm  22.2693 -0.502295 23.0925
RightForeArm  19.8107 56.714 15.5484
RightHand  -0.510584 3.88657 -6.64728
LeftUpLeg  3.88844 9.11548 24.0895
LeftLeg  53.876 9.04871 13.5131
LeftFoot  -21.9874 -0.708696 -9.00528
LeftToes  1.0277e-010 -6.71454e-011 3.04227e-011
540
root  -31.0268 35.6214 -51.8281 -44.5342 60.7447 -22.9911
RightUpLeg  6.01439 -8.02761 -18.0041
RightLeg  23.8581 2.8212 1.14321
RightFoot  5.96048 -3.79726 24.8677
RightToes  -3.31784e-009 0 -3.6325e-017
Spine  5.61355 0.600897 3.59664
Spine1  -4.40627 3.07471 -10.4953
HEad  -32.131 33.1256 -27.0533
LeftShoulder1  1.97908 -2.04121 -29.6408
LeftArm  37.784 -38.9965 -68.3869
LeftForeArm  42.3225 -54.5266 -12.2248
LeftHand  -0.609693 -2.74297 8.92526
RightShoulder  11.2502 17.6445 46.4928
RightArm  24.752 -0.835034 24.3974
RightForeArm  20.974 52.9395 13.2228
RightHand  0.0295481 5.32068 0.00645215
LeftUpLeg  2.01836 6.98003 24.1245
LeftLeg  53.6558 7.98483 11.9449
LeftFoot  -23.6316 -1.0812 -11.3266
LeftToes  1.0277e-010 -6.71454e-011 3.04227e-011
